<svg width="54" height="9" viewBox="0 0 54 9" fill="none" xmlns="http://www.w3.org/2000/svg">
<path d="M0.660511 0.272727H3.27273L5.48864 5.67614H5.59091L7.80682 0.272727H10.419V9H8.36506V3.6392H8.29261L6.19602 8.9446H4.88352L2.78693 3.60938H2.71449V9H0.660511V0.272727ZM13.6225 9H11.3555L14.3001 0.272727H17.1083L20.0529 9H17.7859L15.7362 2.47159H15.668L13.6225 9ZM13.32 5.56534H18.0586V7.16761H13.32V5.56534ZM19.6172 1.9858V0.272727H26.9936V1.9858H24.3473V9H22.2678V1.9858H19.6172ZM28.0238 9V0.272727H33.9812V1.9858H30.1332V3.77557H33.6019V5.4929H30.1332V9H28.0238ZM35.0433 9V0.272727H37.1527V7.28693H40.7834V9H35.0433ZM43.9847 0.272727V9H41.8754V0.272727H43.9847ZM47.4439 0.272727L49.0376 3.02983H49.1058L50.7166 0.272727H53.0774L50.4439 4.63636L53.1626 9H50.7422L49.1058 6.21307H49.0376L47.4013 9H44.9979L47.7038 4.63636L45.0661 0.272727H47.4439Z" fill="#FF0000"/>
</svg>
